<svg width="1em" height="1em" viewBox="0 0 20 20" xmlns="http://www.w3.org/2000/svg" xmlns:xlink="http://www.w3.org/1999/xlink" group="[object Object]" data-name="BookTypeDesign"><defs><rect id="4186960154a" x="0" y="0" width="16" height="13" rx="1.5"></rect></defs><g fill="none" fill-rule="evenodd"><path d="m16.836 5.9 1.582 5.408a1.5 1.5 0 0 1-1.03 1.864L5.47 16.559l-2.162.621.001-9.78.007-.144a1.5 1.5 0 0 1 1.493-1.355h12.027Zm-1.188-4.06.005.017.89 3.043H4.81l-.164.006A2.5 2.5 0 0 0 2.309 7.4v6.862L.312 6.458a1.5 1.5 0 0 1 1.015-1.806L13.775.844a1.5 1.5 0 0 1 1.873.996Z" fill="#7B2908"></path><g transform="translate(3.302 5.888)"><mask id="4186960154b" fill="#fff"><use xlink:href="#4186960154a"></use></mask><use fill="#B2603E" xlink:href="#4186960154a"></use><path d="m1.91 9.724 2.7-3.926a.8.8 0 0 1 1.243-.093l1.783 1.908a1.4 1.4 0 0 0 1.878.153l1.282-.989a.8.8 0 0 1 1.143.173l1.949 2.767a.8.8 0 0 1-.654 1.26H2.569a.8.8 0 0 1-.66-1.253Z" fill-opacity="0.5" fill="#7B2908" mask="url(#4186960154b)" transform="matrix(-1 0 0 1 15.824 0)"></path><ellipse fill-opacity="0.5" fill="#7B2908" mask="url(#4186960154b)" cx="7.047" cy="3.728" rx="1.092" ry="1.116"></ellipse></g></g></svg>