<svg width="1em" height="1em" viewBox="0 0 20 20" xmlns="http://www.w3.org/2000/svg" group="[object Object]" data-name="BookTypeResource" style="width: 24px; height: 24px; min-width: 24px;"><g fill="none" fill-rule="evenodd"><path d="m7.147 2.794 1.328 2.513.076.13a1.5 1.5 0 0 0 1.25.67h7.152l.147.008a1.5 1.5 0 0 1 .436.11l-.008-.002.001.864H5.65l-.797-4.293h2.294Zm8.882 0a1.5 1.5 0 0 1 1.5 1.5v.88a2.5 2.5 0 0 0-.576-.066H9.8l-.09-.009a.5.5 0 0 1-.352-.258L8.28 2.794h7.75Z" fill="#A35C00"></path><path d="M3.07 2.009h2.76a1.5 1.5 0 0 1 1.323.794l1.34 2.512a1.5 1.5 0 0 0 1.324.794h7.127a1.5 1.5 0 0 1 1.5 1.5v9.006a1.5 1.5 0 0 1-1.5 1.5H3.07a1.5 1.5 0 0 1-1.5-1.5V3.51a1.5 1.5 0 0 1 1.5-1.5Z" fill="#B08A1E"></path></g></svg>