<svg width="1em" height="1em" viewBox="0 0 256 256" xmlns="http://www.w3.org/2000/svg" class="larkui-icon larkui-icon-nav-day"><defs><clipPath id="2245320640a"><path d="M114 192c5.523 0 10 4.477 10 10v16c0 5.523-4.477 10-10 10s-10-4.477-10-10v-16c0-5.523 4.477-10 10-10Zm69.277-22.05 11.314 11.314c3.905 3.905 3.905 10.237 0 14.142-3.906 3.905-10.237 3.905-14.142 0l-11.314-11.314c-3.905-3.905-3.905-10.236 0-14.142 3.905-3.905 10.237-3.905 14.142 0Zm-124.45-1.6c3.904 3.906 3.904 10.237 0 14.142l-11.314 11.314c-3.906 3.905-10.237 3.905-14.143 0-3.905-3.905-3.905-10.237 0-14.142l11.314-11.314c3.905-3.905 10.237-3.905 14.142 0ZM114 50c35.346 0 64 28.654 64 64 0 35.346-28.654 64-64 64-35.346 0-64-28.654-64-64 0-35.346 28.654-64 64-64Zm0 20c-24.3 0-44 19.7-44 44s19.7 44 44 44 44-19.7 44-44-19.7-44-44-44Zm104 37.092c5.523 0 10 4.477 10 10s-4.477 10-10 10h-16c-5.523 0-10-4.477-10-10s4.477-10 10-10h16Zm-192 0c5.523 0 10 4.477 10 10s-4.477 10-10 10H10c-5.523 0-10-4.477-10-10s4.477-10 10-10h16Zm21.513-72.906 11.313 11.313c3.905 3.906 3.905 10.237 0 14.143-3.905 3.905-10.237 3.905-14.142 0L33.37 48.328c-3.905-3.905-3.905-10.237 0-14.142 3.906-3.905 10.237-3.905 14.143 0Zm147.078-1.6c3.905 3.905 3.905 10.237 0 14.142l-11.314 11.314c-3.905 3.905-10.237 3.905-14.142 0-3.905-3.906-3.905-10.237 0-14.143l11.314-11.313c3.905-3.905 10.236-3.905 14.142 0ZM114 0c5.523 0 10 4.477 10 10v16c0 5.523-4.477 10-10 10s-10-4.477-10-10V10c0-5.523 4.477-10 10-10Z"></path></clipPath></defs><g clip-path="url(#2245320640a)" transform="translate(14 14)"><path fill="currentColor" d="M0 0h228v228H0V0z"></path></g></svg>