<svg width="1em" height="1em" viewBox="0 0 256 256" xmlns="http://www.w3.org/2000/svg" class="larkui-icon larkui-icon-nav-night"><path d="m134.454 27.76-.763.05c-9.654.616-17.261 8.504-17.261 18.253 0 1.677.301 2.84.819 4.225.191.514.414 1.039.682 1.622l.166.358c.148.315.299.63.472.982l.626 1.248 2.738 5.355c1.498 2.952 2.46 4.934 3.596 7.425l.15.328c2.872 6.32 4.994 12.104 6.243 17.39.706 2.987 1.108 5.733 1.195 8.196.916 25.98-16.83 43.278-43.23 42.67-7.788-.18-20.426-4.493-23.738-7.564l-1.963-1.846c-.9-.853-2.082-1.973-2.496-2.361l-1.01-.94a81.813 81.813 0 0 0-2.314-2.067l-.266-.227c-4.071-3.439-6.97-5.177-11.334-5.177-9.73 0-17.646 7.632-18.166 17.291l-.038.707.062.706c4.44 50.49 46.823 89.538 97.83 89.538 54.272 0 98.241-43.97 98.241-98.242 0-50.992-39.008-93.359-89.48-97.852l-.761-.067Zm4.073 20.611.87.139c37.256 6.208 65.298 38.594 65.298 77.17 0 43.227-35.015 78.242-78.242 78.242l-1.216-.01c-37.236-.57-68.473-27.278-75.511-62.982l-.146-.764 1.915 1.811c.37.349.718.673 1.055.986 7.227 6.701 24.536 12.608 36.877 12.893 37.73.87 65.005-25.715 63.678-63.368-.136-3.865-.727-7.893-1.719-12.09-1.588-6.723-4.134-13.661-7.5-21.067l-.587-1.283c-.192-.416-.381-.82-.57-1.221l-.323-.684a192.62 192.62 0 0 0-1.54-3.158l-.78-1.556-1.559-3.058Z" fill="currentColor" fill-rule="nonzero"></path></svg>