<svg width="1em" height="1em" viewBox="0 0 256 256" xmlns="http://www.w3.org/2000/svg" class="larkui-icon larkui-icon-switch-theme"><path d="M128.5 16.5c61.856 0 112 50.144 112 112 0 61.237-49.146 110.996-110.148 111.985l-1.852.015-1.856-.015-1.914.015v-.063C64.618 238.449 16.5 189.094 16.5 128.5c0-60.594 48.119-109.949 108.229-111.938V16.5c.64 0 1.278.005 1.915.015.62-.01 1.237-.015 1.856-.015Zm-3.778 20.076C75.664 38.558 36.5 78.956 36.5 128.5c0 49.511 39.11 89.887 88.122 91.92l-.09-24.301-.026-13.712a8916.13 8916.13 0 0 1-.004-4.35l.009-20.68.19-90.326.017-18.34.004-12.135Z" fill="currentColor" fill-rule="evenodd"></path></svg>